# xmcd CD database file
#
# Track frame offsets:
#	150
#	19731
#	39958
#	68888
#	98647
#	122099
#	145719
#	166304
#	192481
#	218915
#	239052
#	261613
#	273680
#	293063
#	307873
#	335335
#
# Disc length: 4695 seconds
#
# Revision: 1
# Processed by: cddbd v1.5.2PL0 Copyright (c) Steve Scherf et al.
# Submitted via: CDex 1.70beta3
#
DISCID=f2125510
DTITLE=GLAY - The Great Vacation Vol. 2 [Disc 2]
DYEAR=1900
DGENRE=ロック
TTITLE0=誘惑
TTITLE1=SOUL LOVE
TTITLE2=pure soul
TTITLE3=I'm in Love
TTITLE4=BE WITH YOU
TTITLE5=Winter, again
TTITLE6=サバイバル
TTITLE7=ここではない、どこかへ
TTITLE8=HAPPINESS -WINTER MIX-
TTITLE9=とまどい
TTITLE10=SPECIAL THANKS
TTITLE11=ごらん、世界は苦しみに満ちているよ。
TTITLE12=TWO BELL SILENCE
TTITLE13=SHUTTER SPEEDSのテーマ
TTITLE14=ACID HEAD
TTITLE15=BURST
EXTD=
EXTT0=
EXTT1=
EXTT2=
EXTT3=
EXTT4=
EXTT5=
EXTT6=
EXTT7=
EXTT8=
EXTT9=
EXTT10=
EXTT11=
EXTT12=
EXTT13=
EXTT14=
EXTT15=
PLAYORDER=
